<?xml version="1.0" encoding="UTF-8" standalone="no"?>
<!DOCTYPE svg PUBLIC "-//W3C//DTD SVG 1.1//EN" "http://www.w3.org/Graphics/SVG/1.1/DTD/svg11.dtd">
<svg width="100%" height="100%" viewBox="0 0 375 230" version="1.1" xmlns="http://www.w3.org/2000/svg" xmlns:xlink="http://www.w3.org/1999/xlink" xml:space="preserve" xmlns:serif="http://www.serif.com/" style="fill-rule:evenodd;clip-rule:evenodd;stroke-linejoin:round;stroke-miterlimit:2;">
    <g transform="matrix(1,0,0,1,0,-72.5)">
        <g transform="matrix(1,0,0,-1,0,440.805)">
            <path d="M90.406,214.508C88.289,212.75 85.906,211.867 83.25,211.867C80.516,211.867 78.199,212.504 76.297,213.774C74.402,215.047 72.988,216.793 72.051,219C71.117,221.207 70.648,223.692 70.648,226.457C70.648,229.086 71.152,231.5 72.156,233.696C73.156,235.891 74.668,237.645 76.688,238.957C78.707,240.274 81.18,240.93 84.105,240.93C86,240.93 87.688,240.66 89.168,240.114C90.641,239.575 91.801,238.825 92.641,237.864C93.48,236.899 93.898,235.793 93.898,234.547C93.898,233.164 93.488,232.028 92.664,231.137C91.836,230.243 90.801,229.793 89.551,229.793C89.145,229.793 88.902,229.821 88.824,229.875C88.738,229.926 88.695,230.063 88.695,230.282C88.695,230.36 88.812,230.59 89.047,230.973C89.277,231.352 89.48,231.778 89.656,232.254C89.828,232.723 89.918,233.297 89.918,233.981C89.918,235.36 89.383,236.485 88.312,237.356C87.242,238.219 85.84,238.653 84.105,238.653C81.965,238.653 80.219,238.043 78.863,236.821C77.508,235.602 76.531,234.082 75.938,232.27C75.336,230.453 75.039,228.582 75.039,226.66C75.039,224.414 75.387,222.36 76.078,220.5C76.77,218.645 77.766,217.176 79.066,216.09C80.363,215.008 81.883,214.465 83.617,214.465C86.301,214.465 88.566,215.387 90.406,217.231L90.406,219.301C90.406,220.551 90.23,221.418 89.879,221.903C89.523,222.395 88.832,222.785 87.801,223.082L86.871,223.328L87.359,224.707L95.895,224.707L96.422,224.063L95.895,223.328C95.215,222.434 94.738,221.485 94.469,220.485C94.199,219.481 94.066,218.168 94.066,216.543L94.066,211.825C94.066,203.86 90.84,199.875 84.391,199.875C82.789,199.875 81.434,200.153 80.324,200.707C79.215,201.266 78.383,201.981 77.828,202.86C77.273,203.743 76.996,204.684 76.996,205.688C76.996,207.043 77.453,208.203 78.375,209.16C79.297,210.121 80.555,210.602 82.156,210.602C82.426,210.602 82.621,210.555 82.738,210.465C82.863,210.371 82.926,210.27 82.926,210.16C82.926,210.047 82.738,209.793 82.359,209.387C81.977,208.981 81.645,208.493 81.359,207.922C81.074,207.356 80.934,206.637 80.934,205.77C80.934,204.688 81.305,203.785 82.051,203.063C82.797,202.344 83.805,201.985 85.078,201.985C86.84,201.985 88.168,202.66 89.062,204.016C89.957,205.371 90.406,207.594 90.406,210.684L90.406,214.508Z" style="fill-rule:nonzero;"/>
        </g>
        <g transform="matrix(1,0,0,-1,0,439.098)">
            <path d="M99.141,219.551C99.141,221.715 99.543,223.598 100.344,225.2C101.141,226.801 102.297,228.032 103.801,228.899C105.305,229.766 107.059,230.203 109.066,230.203C111.07,230.203 112.816,229.766 114.309,228.899C115.797,228.032 116.949,226.801 117.766,225.2C118.574,223.598 118.98,221.715 118.98,219.551C118.98,217.407 118.574,215.528 117.766,213.918C116.949,212.305 115.797,211.063 114.309,210.2C112.816,209.328 111.07,208.895 109.066,208.895C107.059,208.895 105.305,209.328 103.801,210.2C102.297,211.063 101.141,212.305 100.344,213.918C99.543,215.528 99.141,217.407 99.141,219.551ZM114.711,219.426C114.711,220.7 114.539,222 114.188,223.332C113.832,224.657 113.242,225.778 112.418,226.7C111.594,227.625 110.516,228.086 109.184,228.086C108.051,228.086 107.039,227.727 106.156,227.008C105.273,226.286 104.594,225.278 104.109,223.977C103.617,222.676 103.371,221.188 103.371,219.508C103.371,216.934 103.875,214.887 104.879,213.371C105.879,211.852 107.234,211.09 108.945,211.09C110.055,211.09 111.051,211.438 111.93,212.125C112.809,212.821 113.496,213.801 113.984,215.059C114.469,216.321 114.711,217.774 114.711,219.426Z" style="fill-rule:nonzero;"/>
        </g>
        <g transform="matrix(1,0,0,-1,0,429.508)">
            <path d="M129.996,208.051C129.996,206.395 130.133,205.07 130.402,204.082C130.676,203.098 131.152,202.156 131.828,201.262L132.359,200.528L131.828,199.875L122.926,199.875L122.438,201.262L123.375,201.5C124.406,201.774 125.094,202.164 125.445,202.68C125.801,203.196 125.977,204.063 125.977,205.281L125.977,225.367C125.977,225.719 125.91,225.969 125.773,226.117C125.637,226.266 125.402,226.344 125.078,226.344L122.723,226.344L122.234,227.844C123.398,228.301 124.938,228.719 126.848,229.086C128.758,229.453 130.594,229.633 132.359,229.633C136.371,229.633 139.352,228.731 141.301,226.926C143.25,225.125 144.227,222.805 144.227,219.961C144.227,218.199 143.871,216.606 143.168,215.184C142.461,213.758 141.379,212.621 139.922,211.77C138.453,210.914 136.637,210.488 134.469,210.488C133.469,210.488 132.621,210.61 131.934,210.856C131.238,211.098 130.891,211.453 130.891,211.91C130.891,212.184 130.945,212.41 131.055,212.602C131.164,212.793 131.328,212.887 131.543,212.887C131.652,212.887 131.879,212.84 132.219,212.746C132.551,212.649 132.992,212.602 133.539,212.602C135.566,212.602 137.152,213.25 138.293,214.551C139.434,215.852 140.004,217.613 140.004,219.84C140.004,222.035 139.398,223.836 138.188,225.238C136.984,226.649 135.281,227.356 133.086,227.356C131.027,227.356 129.996,226.731 129.996,225.488L129.996,208.051Z" style="fill-rule:nonzero;"/>
        </g>
        <g transform="matrix(1,0,0,-1,0,438.528)">
            <path d="M153.328,223.571L153.578,223.571C154.039,225.387 154.746,226.848 155.707,227.958C156.672,229.075 157.723,229.633 158.859,229.633C159.996,229.633 160.941,229.258 161.684,228.516C162.43,227.766 162.801,226.755 162.801,225.485C162.801,224.454 162.422,223.587 161.664,222.883C160.906,222.176 159.961,221.825 158.82,221.825C158.305,221.825 158.047,221.973 158.047,222.274C158.047,222.356 158.164,222.555 158.391,222.883C158.621,223.208 158.812,223.544 158.961,223.895C159.113,224.251 159.188,224.645 159.188,225.079C159.188,225.563 159.059,225.95 158.797,226.235C158.543,226.52 158.227,226.661 157.844,226.661C157.195,226.661 156.523,226.274 155.836,225.501C155.141,224.731 154.551,223.485 154.066,221.766C153.574,220.044 153.328,217.868 153.328,215.239C153.328,214.02 153.426,213.036 153.613,212.294C153.805,211.548 154.145,210.833 154.637,210.153L155.121,209.508L154.637,208.895L147.516,208.895L147.074,210.153L147.922,210.356C148.602,210.52 149.059,210.813 149.289,211.235C149.516,211.653 149.633,212.38 149.633,213.411L149.633,224.833C149.633,225.157 149.574,225.387 149.453,225.52C149.328,225.657 149.117,225.723 148.824,225.723L147.031,225.723L146.664,226.782C147.453,227.489 148.355,228.071 149.371,228.528C150.387,228.989 151.273,229.219 152.031,229.219C152.414,229.219 152.727,229.098 152.969,228.86C153.211,228.614 153.328,228.301 153.328,227.923L153.328,223.571Z" style="fill-rule:nonzero;"/>
        </g>
        <g transform="matrix(1,0,0,-1,0,439.098)">
            <path d="M164.633,219.551C164.633,221.715 165.031,223.598 165.832,225.2C166.633,226.801 167.785,228.032 169.289,228.899C170.789,229.766 172.547,230.203 174.555,230.203C176.559,230.203 178.309,229.766 179.797,228.899C181.289,228.032 182.438,226.801 183.246,225.2C184.062,223.598 184.469,221.715 184.469,219.551C184.469,217.407 184.062,215.528 183.246,213.918C182.438,212.305 181.289,211.063 179.797,210.2C178.309,209.328 176.559,208.895 174.555,208.895C172.547,208.895 170.789,209.328 169.289,210.2C167.785,211.063 166.633,212.305 165.832,213.918C165.031,215.528 164.633,217.407 164.633,219.551ZM180.203,219.426C180.203,220.7 180.023,222 179.672,223.332C179.32,224.657 178.734,225.778 177.906,226.7C177.078,227.625 176,228.086 174.676,228.086C173.535,228.086 172.523,227.727 171.645,227.008C170.766,226.286 170.078,225.278 169.59,223.977C169.105,222.676 168.863,221.188 168.863,219.508C168.863,216.934 169.363,214.887 170.363,213.371C171.367,211.852 172.723,211.09 174.426,211.09C175.539,211.09 176.535,211.438 177.422,212.125C178.301,212.821 178.984,213.801 179.469,215.059C179.957,216.321 180.203,217.774 180.203,219.426Z" style="fill-rule:nonzero;"/>
        </g>
        <g transform="matrix(1,0,0,-1,0,428.695)">
            <path d="M219.227,222.32C218.953,223.32 218.664,224.07 218.355,224.57C218.039,225.074 217.613,225.425 217.074,225.625C216.527,225.832 215.766,225.933 214.793,225.933L212.961,225.933C212.398,225.933 212.023,225.738 211.844,225.343C211.672,224.953 211.582,224.121 211.582,222.843L211.582,204.468C211.582,203.222 211.762,202.355 212.113,201.867C212.465,201.383 213.156,200.988 214.184,200.687L215.121,200.449L214.637,199.062L205.734,199.062L205.199,199.715L205.734,200.449C206.406,201.343 206.879,202.293 207.148,203.293C207.426,204.297 207.562,205.613 207.562,207.238L207.562,222.843C207.562,224.121 207.473,224.953 207.293,225.343C207.117,225.738 206.746,225.933 206.176,225.933L204.344,225.933C203.371,225.933 202.613,225.832 202.074,225.625C201.527,225.425 201.102,225.074 200.789,224.57C200.48,224.07 200.191,223.32 199.922,222.32L199.672,221.383L198.293,221.871L198.293,229.105L198.945,229.633L199.672,229.105C200.434,228.535 201.977,228.25 204.309,228.25L214.836,228.25C217.168,228.25 218.711,228.535 219.473,229.105L220.199,229.633L220.852,229.105L220.852,221.871L219.473,221.383L219.227,222.32Z" style="fill-rule:nonzero;"/>
        </g>
        <g transform="matrix(1,0,0,-1,0,438.528)">
            <path d="M226.5,223.571L226.746,223.571C227.207,225.387 227.918,226.848 228.879,227.958C229.844,229.075 230.891,229.633 232.027,229.633C233.168,229.633 234.109,229.258 234.855,228.516C235.602,227.766 235.973,226.755 235.973,225.485C235.973,224.454 235.594,223.587 234.832,222.883C234.078,222.176 233.129,221.825 231.988,221.825C231.477,221.825 231.219,221.973 231.219,222.274C231.219,222.356 231.332,222.555 231.562,222.883C231.793,223.208 231.984,223.544 232.133,223.895C232.281,224.251 232.359,224.645 232.359,225.079C232.359,225.563 232.227,225.95 231.969,226.235C231.711,226.52 231.395,226.661 231.016,226.661C230.363,226.661 229.695,226.274 229.004,225.501C228.309,224.731 227.719,223.485 227.234,221.766C226.746,220.044 226.5,217.868 226.5,215.239C226.5,214.02 226.594,213.036 226.785,212.294C226.977,211.548 227.316,210.833 227.805,210.153L228.293,209.508L227.805,208.895L220.688,208.895L220.246,210.153L221.094,210.356C221.773,210.52 222.227,210.813 222.457,211.235C222.688,211.653 222.801,212.38 222.801,213.411L222.801,224.833C222.801,225.157 222.742,225.387 222.621,225.52C222.496,225.657 222.289,225.723 221.992,225.723L220.199,225.723L219.832,226.782C220.621,227.489 221.523,228.071 222.539,228.528C223.555,228.989 224.441,229.219 225.203,229.219C225.582,229.219 225.895,229.098 226.141,228.86C226.379,228.614 226.5,228.301 226.5,227.923L226.5,223.571Z" style="fill-rule:nonzero;"/>
        </g>
        <g transform="matrix(1,0,0,-1,0,439.098)">
            <path d="M252.277,213.207C251.164,211.637 250.023,210.528 248.859,209.875C247.691,209.223 246.434,208.895 245.078,208.895C243.777,208.895 242.574,209.27 241.461,210.02C240.352,210.766 239.465,211.883 238.801,213.371C238.137,214.864 237.801,216.664 237.801,218.778C237.801,221.11 238.23,223.133 239.086,224.856C239.941,226.575 241.16,227.895 242.746,228.813C244.328,229.739 246.191,230.203 248.332,230.203C249.387,230.203 250.879,230.024 252.801,229.668C254.426,229.399 255.648,229.239 256.461,229.184L256.906,228.657L256.418,227.922C256.227,227.653 256.094,227.403 256.012,227.172C255.934,226.942 255.891,226.664 255.891,226.34L255.891,213.043C255.891,212.203 256.301,211.782 257.113,211.782C257.789,211.782 258.469,212.028 259.148,212.516L259.922,211.461C259.215,210.676 258.453,210.051 257.641,209.59C256.824,209.125 256.078,208.895 255.406,208.895C254.297,208.895 253.496,209.235 253.004,209.914C252.52,210.59 252.277,211.688 252.277,213.207ZM242.07,219.551C242.07,216.977 242.512,215.078 243.391,213.86C244.27,212.641 245.375,212.028 246.703,212.028C247.789,212.028 248.809,212.336 249.758,212.946C250.703,213.555 251.543,214.481 252.277,215.727L252.277,226.7C251.027,227.539 249.699,227.961 248.289,227.961C246.312,227.961 244.781,227.223 243.699,225.746C242.613,224.274 242.07,222.207 242.07,219.551Z" style="fill-rule:nonzero;"/>
        </g>
        <g transform="matrix(1,0,0,-1,0,428.043)">
            <path d="M280.449,201.988C280.449,201.148 280.852,200.727 281.664,200.727C282.344,200.727 283.02,200.973 283.695,201.461L284.469,200.406C283.762,199.621 283.004,198.996 282.195,198.535C281.379,198.07 280.637,197.84 279.961,197.84C278.844,197.84 278.047,198.18 277.559,198.859C277.07,199.535 276.824,200.633 276.824,202.152C275.715,200.582 274.578,199.473 273.414,198.82C272.246,198.168 270.988,197.84 269.633,197.84C268.332,197.84 267.129,198.215 266.016,198.965C264.902,199.711 264.016,200.828 263.355,202.316C262.691,203.809 262.359,205.609 262.359,207.723C262.359,210.055 262.781,212.078 263.633,213.801C264.488,215.52 265.707,216.84 267.293,217.758C268.879,218.684 270.742,219.148 272.887,219.148C274.293,219.148 275.578,218.969 276.742,218.613L276.742,225.809C276.742,226.133 276.684,226.363 276.562,226.504C276.441,226.641 276.234,226.707 275.934,226.707L274.148,226.707L273.781,227.766C274.566,228.469 275.465,229.051 276.48,229.512C277.496,229.973 278.383,230.203 279.141,230.203C279.523,230.203 279.836,230.078 280.078,229.836C280.324,229.59 280.449,229.277 280.449,228.898L280.449,201.988ZM266.625,208.496C266.625,205.922 267.066,204.023 267.945,202.805C268.824,201.586 269.93,200.973 271.262,200.973C272.344,200.973 273.359,201.281 274.305,201.891C275.254,202.5 276.094,203.426 276.824,204.672L276.824,215.645C275.578,216.484 274.254,216.906 272.844,216.906C270.863,216.906 269.332,216.168 268.254,214.691C267.168,213.219 266.625,211.152 266.625,208.496Z" style="fill-rule:nonzero;"/>
        </g>
        <g transform="matrix(1,0,0,-1,0,439.098)">
            <path d="M304.305,212.516C303.305,211.352 302.113,210.457 300.727,209.832C299.348,209.207 297.859,208.895 296.258,208.895C294.387,208.895 292.746,209.328 291.336,210.2C289.926,211.063 288.836,212.286 288.066,213.86C287.293,215.43 286.906,217.246 286.906,219.305C286.906,221.473 287.34,223.379 288.211,225.02C289.074,226.653 290.301,227.926 291.887,228.836C293.469,229.746 295.32,230.203 297.434,230.203C298.926,230.203 300.191,229.922 301.238,229.364C302.281,228.809 303.062,228.078 303.578,227.172C304.094,226.262 304.352,225.278 304.352,224.223C304.352,223.086 304.047,221.989 303.434,220.934C302.824,219.871 301.938,219.012 300.773,218.352C299.609,217.688 298.211,217.356 296.578,217.356C295.715,217.356 294.754,217.516 293.699,217.84C292.641,218.168 292.109,218.641 292.109,219.266C292.109,219.481 292.172,219.684 292.297,219.875C292.418,220.063 292.559,220.16 292.719,220.16C292.801,220.16 293.074,220.071 293.535,219.899C293.996,219.715 294.59,219.625 295.32,219.625C296.949,219.625 298.219,220.09 299.121,221.016C300.031,221.934 300.488,223.016 300.488,224.262C300.488,225.321 300.148,226.239 299.469,227.008C298.793,227.782 297.844,228.168 296.625,228.168C294.891,228.168 293.535,227.403 292.559,225.868C291.586,224.336 291.098,222.149 291.098,219.305C291.098,216.895 291.613,215.004 292.641,213.633C293.672,212.266 295.164,211.578 297.113,211.578C299.496,211.578 301.477,212.352 303.047,213.899C303.156,214.008 303.277,214.063 303.414,214.063C303.629,214.063 303.859,213.934 304.102,213.672C304.348,213.418 304.469,213.153 304.469,212.883C304.469,212.75 304.414,212.625 304.305,212.516Z" style="fill-rule:nonzero;"/>
        </g>
        <g transform="matrix(1,0,0,-1,0,506.297)">
            <path d="M123.344,244.184C161.555,258.758 211.969,262.379 251.715,253.406C252.508,253.254 253.426,253.527 253.699,254.067C253.973,254.606 253.617,255.203 252.824,255.352C232.477,259.91 209.547,261.27 186.672,259.629C163.801,257.985 141.297,253.359 121.812,245.938C121.047,245.676 120.781,245.035 121.129,244.543C121.633,244.059 122.582,243.918 123.344,244.184Z" style="fill-rule:nonzero;"/>
        </g>
        <g transform="matrix(1,0,0,-1,0,262.738)">
            <path d="M195.5,172.136C175.367,172.109 158.664,157.492 155.371,138.304L161.129,137.867C162.516,145.261 166.227,151.836 171.477,156.804C172.988,155.695 174.578,154.687 176.238,153.793C173.645,149.086 171.848,143.879 171.012,138.355C173.375,140.105 175.48,141.48 177.441,142.426C178.809,147.004 180.719,150.695 181.195,151.539C184.855,150.16 188.77,149.293 192.844,149.023L192.844,133.711L191.52,133.711C191.238,132.289 190.582,130.699 189.352,128.968C189.195,128.742 189.023,128.511 188.844,128.281L192.844,128.281L192.844,112.476C188.984,112.222 185.27,111.433 181.777,110.179C181.562,110.535 181.359,110.886 181.16,111.238L180.066,103.074C181.41,101.32 182.875,99.664 184.449,98.121C182.797,98.672 181.203,99.343 179.672,100.125L179.418,98.222C179.23,96.832 178.5,95.629 177.445,94.816C182.922,92.097 189.09,90.566 195.621,90.578C218.141,90.613 236.371,108.898 236.34,131.418C236.305,153.941 218.02,172.172 195.5,172.136ZM192.844,98.093C189.527,100.429 185.938,104.41 185.02,105.547C187.559,106.34 190.176,106.84 192.844,107.039L192.844,98.093ZM179.137,158.398C178.012,158.988 176.926,159.64 175.875,160.347C178.5,162.133 181.379,163.57 184.449,164.597C182.508,162.687 180.723,160.617 179.137,158.398ZM192.844,154.461C189.906,154.683 187.035,155.265 184.262,156.203C187.426,160.226 191.121,163.363 192.844,164.621L192.844,154.461ZM230.516,133.711L220.574,133.711C220.215,140.965 218.191,147.785 214.883,153.793C216.543,154.687 218.133,155.695 219.645,156.804C225.855,150.922 229.914,142.793 230.516,133.711ZM215.246,160.347C214.191,159.64 213.105,158.988 211.98,158.398C210.395,160.617 208.609,162.691 206.668,164.597C209.738,163.57 212.617,162.133 215.246,160.347ZM198.273,164.621C199.996,163.363 204.613,159.543 206.859,156.203C204.086,155.265 201.211,154.683 198.273,154.461L198.273,164.621ZM198.273,149.023C202.352,149.293 206.262,150.156 209.926,151.539C210.684,150.191 214.77,142.379 215.137,133.711L198.273,133.711L198.273,149.023ZM198.273,128.281L215.09,128.281C214.762,123.812 213.148,115.816 209.344,110.179C205.848,111.433 202.137,112.222 198.273,112.476L198.273,128.281ZM198.273,98.093L198.273,107.039C200.945,106.84 203.559,106.336 206.098,105.543C205.18,104.41 201.547,100.371 198.273,98.093ZM206.672,98.121C208.355,99.769 209.918,101.547 211.332,103.433C212.355,102.926 213.348,102.363 214.312,101.758C211.945,100.254 209.383,99.027 206.672,98.121ZM218.898,105.23C217.449,106.242 215.93,107.168 214.352,107.988C217.863,114.023 220.051,120.918 220.535,128.281L230.461,128.281C229.668,119.14 225.363,111.004 218.898,105.23ZM149.344,97.129L146.816,103.777C145.184,103.351 144.031,103.418 143.52,104.05C143,104.691 143.188,105.859 143.973,107.406L137.789,111.386L146.137,110.754C148.883,114.394 153.406,119.039 158.973,123.8L141.152,135.281L170.32,133.062C178.285,139.371 184.336,143.23 187.328,139.539C190.246,135.933 185.512,130.961 178,124.691L173.988,94.746L166.215,115.195C160.242,110.597 154.605,107.05 150.414,105.121L149.344,97.129Z" style="fill:rgb(255,211,78);fill-rule:nonzero;"/>
        </g>
        <g transform="matrix(1,0,0,-1,0,541.699)">
            <path d="M128.594,278.629C130.164,278.941 131.836,279.226 133.531,279.566C133.762,279.617 134.004,279.648 134.184,279.648C134.781,279.648 135.066,279.387 135.066,278.785C135.066,278.629 135.047,278.418 134.992,278.207C134.391,275.261 133.844,272.336 133.266,269.441L132.066,263.297C131.941,262.254 131.836,261.289 131.836,260.351C131.836,259.773 132.246,259.359 132.801,259.359C133.352,259.359 133.711,260.476 133.844,261.129C135.016,267.031 136.297,272.965 137.289,278.941C137.422,279.722 137.684,280.039 138.496,280.121C140.812,280.324 143.137,280.617 145.516,280.902C145.801,280.953 146.094,281.344 146.355,281.531C146.094,281.711 145.801,282.047 145.516,282.047C144.137,282.129 142.801,282.183 141.422,282.183C137.844,282.101 134.234,281.637 130.734,280.879C130.582,280.824 130.426,280.797 130.32,280.797C129.512,280.797 130.133,282.34 129.172,282.34C128.047,282.34 127.156,281.215 127.156,279.804C127.156,278.914 127.551,278.629 128.594,278.629Z" style="fill-rule:nonzero;"/>
        </g>
        <g transform="matrix(1,0,0,-1,0,545.523)">
            <path d="M147.473,277.675C147.156,278.117 147.188,278.664 146.641,278.664C145.492,278.664 144.684,276.992 143.926,276.054C143.664,275.738 143.348,275.453 143.031,275.168C142.875,276.003 142.566,277.179 141.863,277.179C140.191,277.179 140.242,273.445 140.086,272.191C139.906,270.781 139.664,269.371 139.559,267.933C139.559,267.593 139.906,267.203 140.086,266.859C140.664,267.203 141.074,267.281 141.465,268.226C142.043,269.605 142.434,271.043 143.086,272.371C143.684,273.57 145.281,276.371 145.727,276.371C146.039,276.371 146.25,275.582 146.641,275.582C147.113,275.582 147.238,276.707 147.473,277.675Z" style="fill-rule:nonzero;"/>
        </g>
        <g transform="matrix(1,0,0,-1,0,547.555)">
            <path d="M150.891,278.086C150.27,277.77 149.484,277.59 148.965,277.2C147.504,276.098 146.43,274.172 146.43,272.289C146.43,271.477 146.926,270.825 147.711,270.825C148.598,270.825 149.484,271.614 149.641,271.614C150.082,271.614 149.617,270.825 150.344,269.965C150.586,269.649 150.789,269.469 151.027,269.469C151.648,269.469 151.785,270.539 151.891,271.477C152.07,272.993 152.281,274.539 152.512,276.047C152.543,276.203 152.566,276.391 152.566,276.52C152.566,277.434 152.016,277.957 150.891,278.086ZM150.891,275.813C150.137,274.59 149.039,272.446 148.207,272.446C147.891,272.446 147.766,272.918 147.766,273.047C147.766,273.782 148.934,275.34 149.617,276.285C149.746,276.414 149.984,276.465 150.219,276.465C150.555,276.465 150.586,276.309 150.891,275.813Z" style="fill-rule:nonzero;"/>
        </g>
        <g transform="matrix(1,0,0,-1,0,540.656)">
            <path d="M153.922,266.328C153.922,266.199 153.871,265.988 153.871,265.726C153.871,265.179 154.363,263.926 155.102,263.926C155.469,263.926 155.805,264.211 156.09,264.504C156.328,264.715 156.668,264.765 156.93,264.894C156.984,264.578 157.035,264.316 157.035,264.011C156.984,263.453 156.898,262.886 156.898,262.336C156.898,261.496 157.164,261.031 157.605,261.031C159.121,261.031 159.512,264.968 160.059,267.168C160.582,269.199 161.234,271.218 161.707,273.281C162.203,275.418 162.277,276.226 162.781,278.394C162.801,278.574 162.855,278.785 162.855,278.972C162.855,279.308 162.645,279.625 161.918,279.625C161.52,279.625 161.234,279.437 161.055,278.972C159.984,276.015 159.203,274.039 158.391,271.765C158.309,271.554 158.129,271.367 157.973,271.187C157.5,271.734 157.059,272.363 156.512,272.363C154.836,272.363 153.922,269.051 153.922,266.695L153.922,266.328ZM154.816,266.281C155.152,267.586 155.773,270.82 156.277,270.82C156.637,270.82 157.551,270.062 157.551,269.547C157.551,268.996 156.195,265.914 155.934,265.758C155.73,265.601 155.414,265.441 155.203,265.441C155.047,265.496 154.973,265.914 154.816,266.281Z" style="fill-rule:nonzero;"/>
        </g>
        <g transform="matrix(1,0,0,-1,0,546.641)">
            <path d="M162.855,271.059C162.961,269.86 163.066,268.082 165.074,268.082C166.066,268.082 167.684,268.922 167.684,269.996C167.684,270.25 167.527,270.383 167.242,270.383C166.719,270.383 166.254,270.098 165.727,270.098C164.863,270.098 164.949,270.829 164.949,271.321C164.949,272.657 166.273,273.016 166.906,274.036C167.398,274.875 168.316,276.153 168.316,277.067C168.316,278.004 167.578,278.559 166.719,278.559C164.16,278.559 162.906,273.774 162.855,271.059ZM167.316,276.496C166.926,275.891 166.359,274.614 165.961,274.614C165.832,274.614 165.652,274.848 165.652,274.953C165.652,274.981 165.676,274.981 165.676,275.004C165.887,275.606 166.254,277.098 166.824,277.098C166.98,277.098 167.137,276.731 167.316,276.496Z" style="fill-rule:nonzero;"/>
        </g>
        <g transform="matrix(1,0,0,-1,0,536.898)">
            <path d="M185.707,270.851L185.496,271.089C183.668,270.121 181.941,268.871 180.141,267.714C179.543,267.355 178.859,267.039 178.289,266.621C178.051,266.41 178.027,266.019 177.871,265.734C178.184,265.628 178.469,265.472 178.785,265.472C179.047,265.472 179.281,265.683 179.543,265.757C179.754,265.808 179.91,265.808 180.121,265.863C180.141,265.683 180.195,265.441 180.195,265.261L180.195,265.156C179.203,263.148 177.164,259.285 175.574,259.285C174.84,259.285 174.504,259.937 174.504,260.433C174.504,260.769 174.578,261.105 174.684,261.421C175.809,264.664 176.879,268.398 179.754,270.511C180.219,270.851 180.637,271.375 180.637,271.793C180.637,272.027 180.219,272.183 180.016,272.183C179.754,272.183 179.512,271.976 179.281,271.921C179.047,271.839 178.785,271.816 178.551,271.71C178.523,271.976 178.395,272.257 178.395,272.5C178.629,273.332 178.785,274.195 179.203,274.921C179.723,275.867 180.426,276.648 181.109,277.433C181.266,277.613 181.68,277.562 181.973,277.613C181.996,277.382 182.047,277.171 182.047,276.96C182.047,276.57 181.867,276.308 181.785,275.918C181.785,275.761 181.973,275.574 181.973,275.394C183.039,275.816 183.352,277.121 183.352,277.824C183.352,278.32 183.141,279.023 182.102,279.023C181.605,279.023 181.004,278.867 180.586,278.55C177.977,276.675 176.984,273.773 176.984,270.64C176.984,270.25 176.953,269.882 176.797,269.543C175.363,266.597 173.012,263.539 173.012,260.011C173.012,258.707 173.977,257.875 175.281,257.875C176.438,257.875 177.449,258.496 178.133,259.336C179.672,261.293 181.629,263.933 181.973,266.23C182.203,267.871 183.984,268.89 185.109,269.964C185.363,270.195 185.496,270.535 185.707,270.851Z" style="fill-rule:nonzero;"/>
        </g>
        <g transform="matrix(1,0,0,-1,0,537.73)">
            <path d="M194.477,276.984C194.43,276.984 194.379,276.984 194.348,277.035C194.348,277.269 194.379,277.531 194.379,277.765C194.379,278.679 193.695,278.918 193.199,278.918C192.621,278.918 192.391,278.5 192.309,277.668C192.074,275.394 191.707,273.089 191.398,270.847C190.98,267.945 190.273,265.125 190.246,262.23C190.246,261.839 190.273,261.421 190.297,261.031C190.297,260.507 189.57,259.726 189.359,259.171C189.594,259.042 189.906,258.812 190.246,258.812C190.328,258.812 190.434,258.886 190.559,258.937C192.441,259.433 194.348,259.8 196.23,259.8C197.484,259.8 198.734,259.644 199.988,259.277C200.094,259.253 200.176,259.253 200.273,259.253C200.484,259.253 200.691,259.277 200.926,259.328C200.773,259.57 200.641,260.011 200.43,260.117C199.156,260.558 198.156,260.98 196.777,260.98C195.391,260.98 194.031,260.664 192.652,260.664C192.129,260.664 191.918,260.843 191.918,261.285C191.918,261.421 191.918,261.601 191.969,261.789C192.18,262.621 192.262,263.453 192.414,264.347C193.172,268.578 193.801,272.828 194.477,276.984Z" style="fill-rule:nonzero;"/>
        </g>
        <g transform="matrix(1,0,0,-1,0,547.219)">
            <path d="M200.672,272.637C200.672,270.469 201.426,269.184 202.574,269.184C204.352,269.184 205.867,272.426 205.867,274.985C205.867,275.973 205.785,277.309 205.059,278.035C204.766,277.75 204.609,277.75 204.609,277.328C204.609,276.731 204.871,276.16 204.871,275.614C204.871,274.172 204.301,272.5 203.672,271.09C203.566,270.805 203.07,270.649 202.734,270.414C202.574,270.774 202.262,271.227 202.262,271.586C202.262,273.153 202.859,275.192 203.902,276.446C203.984,276.52 204.039,276.707 204.039,276.864C204.039,277.309 203.594,277.539 203.25,277.539C201.66,277.539 200.773,273.86 200.672,272.637Z" style="fill-rule:nonzero;"/>
        </g>
        <g transform="matrix(1,0,0,-1,0,554.633)">
            <path d="M205.289,268.426C205.785,268.664 206.363,268.813 206.828,269.106C209.129,270.832 210.227,273.336 210.984,275.945C211.867,278.945 212.469,282.028 213.148,285.09C213.172,285.164 213.203,285.27 213.203,285.399C213.203,286.207 212.762,286.133 212.34,286.133C211.688,286.133 211.371,285.848 210.879,285.848C208.996,285.637 207.48,283.965 207.48,282.113C207.48,281.09 207.93,280.543 208.738,280.543C208.996,280.543 209.414,280.672 209.676,280.672C209.91,280.672 210.016,280.543 210.016,280.305C210.016,279.945 209.781,279.211 209.648,278.715C209.078,276.391 208.164,274.094 206.961,272.055C206.309,270.961 205.785,270.571 204.953,270.571C204.586,270.571 204.141,270.727 203.648,270.727C203.387,270.727 203.25,270.59 203.25,270.328C203.25,269.367 204.352,268.582 205.289,268.426ZM208.531,282.238C208.738,283.153 209.414,284.797 210.383,284.797C210.562,284.797 210.801,284.742 210.984,284.742L210.984,284.641C210.984,284.461 211.004,284.301 211.004,284.176C211.004,283.625 209.91,282.473 209.52,282.008C209.391,281.871 209.152,281.821 208.973,281.821C208.637,281.821 208.637,282.008 208.531,282.238Z" style="fill-rule:nonzero;"/>
        </g>
        <g transform="matrix(1,0,0,-1,0,542.512)">
            <path d="M213.727,265.68C213.781,265.68 213.801,265.625 213.801,265.625L213.801,265.446C213.801,265.055 214.191,264.606 214.434,264.27C214.793,264.457 215.371,264.742 215.496,265.235C216.074,267.508 216.652,269.832 217.172,272.129L217.172,272.262C217.172,272.832 216.727,273.328 216.129,273.328C214.379,273.328 214.664,270.645 214.434,269.34C214.191,268.086 213.984,266.907 213.727,265.68ZM216.148,276.934C216.309,276.801 216.801,276.254 216.961,276.254C217.613,276.254 218.109,277.746 218.109,277.641C218.109,278.032 217.746,278.242 217.254,278.242C216.602,278.242 216.18,277.871 216.148,276.934Z" style="fill-rule:nonzero;"/>
        </g>
        <g transform="matrix(1,0,0,-1,0,547.394)">
            <path d="M221.031,274.874C221.168,274.874 221.324,274.949 221.453,274.949C222.293,274.949 222.914,274.609 222.914,273.98C222.914,272.968 221.609,271.503 220.801,270.562C220.484,270.191 219.367,269.234 219,269.234C218.738,269.234 218.664,269.234 218.664,269.539C218.664,269.91 219.367,270.749 219.57,271.109C219.676,271.265 219.676,271.503 219.676,271.656L219.391,271.656C219.316,271.656 219.211,271.656 219.156,271.601C218.031,270.898 216.285,269.359 216.285,268.078C216.285,267.476 216.75,266.984 217.508,266.984C218.789,266.984 219.809,267.687 220.801,268.499C222.398,269.804 224.609,271.843 224.609,274.062C224.609,275.285 223.703,276.097 222.211,276.097L221.949,276.097C221.453,276.097 221.012,276.23 220.516,276.335C220.641,276.906 220.852,278.105 221.242,278.105C221.504,278.105 221.844,277.429 222.105,277.429C222.578,277.429 222.863,278.66 222.863,279.417C222.863,280.249 222.578,280.41 222.156,280.41C221.82,280.41 221.504,280.304 221.379,280.124C220.461,278.894 219.57,277.558 218.789,276.23C218.684,276.074 218.664,275.937 218.664,275.812C218.664,274.894 220.199,274.894 221.031,274.874Z" style="fill-rule:nonzero;"/>
        </g>
        <g transform="matrix(1,0,0,-1,0,537.992)">
            <path d="M226.809,261.633C226.859,261.633 226.914,261.601 226.965,261.601C226.965,261.398 226.934,261.16 226.934,260.926C226.934,260.59 227.176,259.41 227.828,259.41C228.059,259.41 228.449,259.621 228.691,259.832C229.754,260.609 229.754,261.945 230.176,263.062C230.176,263.168 229.809,263.512 229.703,263.512C229.629,263.484 229.551,263.484 229.5,263.484C229.207,263.484 229.133,263.617 229.133,263.82C229.133,263.926 229.156,264.031 229.184,264.164C229.574,265.965 229.891,270.512 230.281,272.281C230.543,273.457 232.605,274.449 233.859,275.312C234.016,275.414 234.066,275.656 234.195,275.804C234.039,275.836 233.859,275.887 233.699,275.887C232.891,275.887 231.922,275.101 231.352,275.101C231.008,275.101 230.879,275.289 230.879,275.73C230.879,276.277 231.008,277.172 231.008,277.719C231.008,278.133 230.961,278.582 230.438,278.582C229.207,278.582 228.816,277.297 228.816,276.277C228.816,276.015 228.848,275.73 228.848,275.5C228.848,274.215 228.375,273.668 227.016,273.437C226.469,273.301 225.66,273.226 225.66,272.699C225.711,272.387 226.02,272.152 226.281,272.152C226.68,272.152 227.094,272.312 227.43,272.312C227.902,272.312 228.141,272.078 228.141,271.605C228.141,271.238 228.008,270.922 227.953,270.617C227.566,268.554 227.199,263.695 226.809,261.633Z" style="fill-rule:nonzero;"/>
        </g>
        <g transform="matrix(1,0,0,-1,0,542.512)">
            <path d="M231.586,265.68C231.637,265.68 231.668,265.625 231.668,265.625L231.668,265.446C231.668,265.055 232.059,264.606 232.289,264.27C232.656,264.457 233.227,264.742 233.363,265.235C233.934,267.508 234.512,269.832 235.035,272.129L235.035,272.262C235.035,272.832 234.594,273.328 233.984,273.328C232.238,273.328 232.523,270.645 232.289,269.34C232.059,268.086 231.848,266.907 231.586,265.68ZM234.016,276.934C234.172,276.801 234.668,276.254 234.824,276.254C235.477,276.254 235.973,277.746 235.973,277.641C235.973,278.032 235.605,278.242 235.109,278.242C234.457,278.242 234.039,277.871 234.016,276.934Z" style="fill-rule:nonzero;"/>
        </g>
        <g transform="matrix(1,0,0,-1,0,546.743)">
            <path d="M240.801,275.946L240.801,276.181C240.801,276.884 240.57,277.223 239.992,277.223C239.602,277.223 239.023,277.095 238.582,276.696C237.047,275.548 236.496,274.087 236.496,272.446C236.496,271.583 236.656,269.52 238.371,269.52C239.34,269.52 241.117,270.403 241.117,271.243C241.117,271.559 240.938,271.559 240.781,271.559C240.309,271.559 239.625,270.931 239.109,270.931C238.637,270.931 238.215,271.216 238.215,271.739C238.215,273.02 238.453,274.243 239.234,275.317C239.391,275.497 239.551,275.602 239.676,275.602C239.918,275.602 240.098,275.263 240.465,274.739C240.621,275.188 240.801,275.446 240.801,275.946Z" style="fill-rule:nonzero;"/>
        </g>
        <g transform="matrix(1,0,0,-1,0,547.394)">
            <path d="M244.824,274.874C244.957,274.874 245.113,274.949 245.242,274.949C246.074,274.949 246.703,274.609 246.703,273.98C246.703,272.968 245.398,271.503 244.59,270.562C244.273,270.191 243.156,269.234 242.789,269.234C242.527,269.234 242.453,269.234 242.453,269.539C242.453,269.91 243.156,270.749 243.359,271.109C243.465,271.265 243.465,271.503 243.465,271.656L243.18,271.656C243.105,271.656 243,271.656 242.949,271.601C241.824,270.898 240.074,269.359 240.074,268.078C240.074,267.476 240.539,266.984 241.297,266.984C242.578,266.984 243.602,267.687 244.59,268.499C246.18,269.804 248.398,271.843 248.398,274.062C248.398,275.285 247.492,276.097 246,276.097L245.738,276.097C245.242,276.097 244.801,276.23 244.305,276.335C244.434,276.906 244.641,278.105 245.031,278.105C245.297,278.105 245.633,277.429 245.895,277.429C246.367,277.429 246.652,278.66 246.652,279.417C246.652,280.249 246.367,280.41 245.949,280.41C245.609,280.41 245.297,280.304 245.168,280.124C244.254,278.894 243.359,277.558 242.578,276.23C242.477,276.074 242.453,275.937 242.453,275.812C242.453,274.894 243.988,274.894 244.824,274.874Z" style="fill-rule:nonzero;"/>
        </g>
    </g>
</svg>
