<svg xmlns="http://www.w3.org/2000/svg" viewBox="0 0 188.94 27.13"><defs><style>.a{fill:#7dc43e;}.b{isolation:isolate;}.c{fill:#64748b;}.d{opacity:0.55;}.e{opacity:0.7;}.f{opacity:0.85;}</style></defs><path class="a" d="M9.61,24H3.81V6.86H9.05a6.38,6.38,0,0,1,4.82,1.73,6.4,6.4,0,0,1,1.66,4.61v5.23Q15.53,24,9.61,24ZM14,18.71V12.92a4.24,4.24,0,0,0-1.4-3.49A4.92,4.92,0,0,0,9.33,8.28h-4V22.62H9.16C12.37,22.62,14,21.31,14,18.71Z" transform="translate(-3.81 -4.76)"/><path class="a" d="M22.14,24H20.58V10h1.56Z" transform="translate(-3.81 -4.76)"/><path class="a" d="M89.94,24H88.38V10h1.56Z" transform="translate(-3.81 -4.76)"/><path class="a" d="M26.11,20.47h1.48a2.43,2.43,0,0,0,1.25,1.88,4.94,4.94,0,0,0,4.72.06,1.85,1.85,0,0,0,1-1.73,2.17,2.17,0,0,0-.79-1.8,5.85,5.85,0,0,0-1.94-1c-.76-.24-1.54-.5-2.32-.77a5.84,5.84,0,0,1-2.06-1.21,3,3,0,0,1-1.06-2.36,3.75,3.75,0,0,1,1.13-2.62,4.8,4.8,0,0,1,3.67-1.22,6.42,6.42,0,0,1,1.67.21,4.91,4.91,0,0,1,1.12.41l.33.19-.53,1.29a4.12,4.12,0,0,0-2.51-.73,4.07,4.07,0,0,0-2.41.64A2,2,0,0,0,28,13.43a1.88,1.88,0,0,0,.92,1.66A7.83,7.83,0,0,0,31,16c.79.24,1.57.5,2.36.8a4.91,4.91,0,0,1,2,1.37,3.57,3.57,0,0,1,.81,2.45,3.46,3.46,0,0,1-1.24,2.65,5.24,5.24,0,0,1-3.63,1.12,5.7,5.7,0,0,1-3.76-1.14A3.75,3.75,0,0,1,26.11,20.47Z" transform="translate(-3.81 -4.76)"/><path class="a" d="M40.82,29.26l-1.56.62V10h1.56l-.14,1.42a5.18,5.18,0,0,1,4-1.65,4.86,4.86,0,0,1,3.78,1.51,5.65,5.65,0,0,1,1.35,3.91V19.1A5.11,5.11,0,0,1,48.36,23a5.32,5.32,0,0,1-3.84,1.36,4.61,4.61,0,0,1-3.7-1.51Zm7.4-9.88V15.11a3.68,3.68,0,0,0-1.08-3,3.76,3.76,0,0,0-2.56-.92,4,4,0,0,0-2.59.9A3.75,3.75,0,0,0,40.82,15v4.41a3.3,3.3,0,0,0,1,2.68,4.46,4.46,0,0,0,5.32,0A3.31,3.31,0,0,0,48.22,19.38Z" transform="translate(-3.81 -4.76)"/><path class="a" d="M57.51,23a8.62,8.62,0,0,0,4.08-1.15L62.2,23a8.53,8.53,0,0,1-4.49,1.31q-4.86,0-4.86-4.08V14.55A4.47,4.47,0,0,1,54.26,11,5.43,5.43,0,0,1,58,9.78,5,5,0,0,1,61.6,11a4.54,4.54,0,0,1,1.3,3.45v3.62l-8.49.48v1.7a2.38,2.38,0,0,0,1.09,2.18A3.72,3.72,0,0,0,57.51,23Zm3.83-6.28V14.27a3,3,0,0,0-.64-2,2.91,2.91,0,0,0-1.34-1,4.9,4.9,0,0,0-1.4-.21,3.88,3.88,0,0,0-2.54.83,3.24,3.24,0,0,0-1,2.63V17Z" transform="translate(-3.81 -4.76)"/><path class="a" d="M74.79,20.47h1.48a2.42,2.42,0,0,0,1.26,1.88,4.66,4.66,0,0,0,2.38.63,4.77,4.77,0,0,0,2.34-.57,1.87,1.87,0,0,0,1-1.73,2.18,2.18,0,0,0-.8-1.8,5.85,5.85,0,0,0-1.94-1c-.76-.24-1.53-.5-2.31-.77a5.89,5.89,0,0,1-2.07-1.21,3,3,0,0,1-1.06-2.36,3.8,3.8,0,0,1,1.13-2.62A4.82,4.82,0,0,1,79.9,9.69a6.37,6.37,0,0,1,1.67.21,4.73,4.73,0,0,1,1.12.41l.34.19-.53,1.29A4.15,4.15,0,0,0,80,11.06a4.07,4.07,0,0,0-2.41.64,2,2,0,0,0-.91,1.73,1.88,1.88,0,0,0,.92,1.66,8,8,0,0,0,2.11.95c.79.24,1.58.5,2.36.8a4.91,4.91,0,0,1,2,1.37,3.57,3.57,0,0,1,.81,2.45,3.42,3.42,0,0,1-1.24,2.65A5.24,5.24,0,0,1,80,24.43a5.67,5.67,0,0,1-3.75-1.14A3.72,3.72,0,0,1,74.79,20.47Z" transform="translate(-3.81 -4.76)"/><path class="a" d="M108.4,24V15.19a5.6,5.6,0,0,1,1.36-4.06,5.85,5.85,0,0,1,7.69.06,5.62,5.62,0,0,1,1.36,4V24h-1.56V15.19q0-4-3.6-4c-2.46,0-3.68,1.35-3.68,4V24Z" transform="translate(-3.81 -4.76)"/><path class="a" d="M105.19,15.19v3.69a5.89,5.89,0,0,1-1.28,3.88A4.79,4.79,0,0,1,100,24.29a4.85,4.85,0,0,1-3.92-1.55,5.7,5.7,0,0,1-1.33-3.86V15.19a5.64,5.64,0,0,1,1.35-4.06A5.08,5.08,0,0,1,100,9.72a5,5,0,0,1,3.85,1.47A5.58,5.58,0,0,1,105.19,15.19Zm-1.56,4v-4q0-4-3.6-4t-3.69,4v4a3.73,3.73,0,0,0,1,2.7,3.59,3.59,0,0,0,2.71,1,3.4,3.4,0,0,0,2.65-1A3.85,3.85,0,0,0,103.63,19.16Z" transform="translate(-3.81 -4.76)"/><rect class="a" x="92.54" width="7.29" height="1.54"/><path class="a" d="M72.9,11.36a4.73,4.73,0,0,0-1.47-.22q-3.69,0-3.69,4V24H66.18V15.19a5.64,5.64,0,0,1,1.35-4.06,5.07,5.07,0,0,1,3.84-1.41,5.75,5.75,0,0,1,2.62.55Z" transform="translate(-3.81 -4.76)"/><g class="b"><path class="c" d="M126.13,16.59a7,7,0,0,1,.5-2.58,7.26,7.26,0,0,1,1.44-2.29,7.09,7.09,0,0,1,2.32-1.65,7.43,7.43,0,0,1,3.08-.62,7.26,7.26,0,0,1,3.6.86,5.53,5.53,0,0,1,2.29,2.28l-3,2.14a2.41,2.41,0,0,0-.76-1.09,2.93,2.93,0,0,0-1.07-.54,4.5,4.5,0,0,0-1.13-.15,2.9,2.9,0,0,0-2.47,1.21,3.84,3.84,0,0,0-.59,1.22,4.7,4.7,0,0,0-.19,1.33,4.61,4.61,0,0,0,.22,1.44,3.77,3.77,0,0,0,.65,1.22,2.93,2.93,0,0,0,1,.84,3.11,3.11,0,0,0,1.38.3,3.67,3.67,0,0,0,1.12-.17,3,3,0,0,0,1-.55,2.47,2.47,0,0,0,.71-1l3.21,1.93a4.15,4.15,0,0,1-1.42,1.8,7.4,7.4,0,0,1-2.24,1.14,8.39,8.39,0,0,1-2.49.39,6.71,6.71,0,0,1-2.92-.63,7.56,7.56,0,0,1-2.28-1.7,7.74,7.74,0,0,1-1.49-2.39A7.25,7.25,0,0,1,126.13,16.59Z" transform="translate(-3.81 -4.76)"/><path class="c" d="M151.76,23.91V16.35l-2.41,5.32h-2.1l-2.41-5.32v7.56H140.9V9.55h4.3l3.1,6.76,3.11-6.76h4.29V23.91Z" transform="translate(-3.81 -4.76)"/><path class="c" d="M166.86,14.26a11.2,11.2,0,0,0-2.48-1.11,4.75,4.75,0,0,0-1.32-.2,1.83,1.83,0,0,0-.83.16.57.57,0,0,0-.32.54.67.67,0,0,0,.32.58,3.5,3.5,0,0,0,.92.4l1.43.44a12.21,12.21,0,0,1,2.3.93,3.55,3.55,0,0,1,2,3.48,4.54,4.54,0,0,1-.47,2.16A3.82,3.82,0,0,1,167.19,23a5.32,5.32,0,0,1-1.76.75,8.24,8.24,0,0,1-2,.23,11.77,11.77,0,0,1-2.16-.21,14.16,14.16,0,0,1-2.17-.59,11.3,11.3,0,0,1-1.92-.88l1.7-3.45a15.56,15.56,0,0,0,1.47.78,10.31,10.31,0,0,0,1.49.55,5.78,5.78,0,0,0,1.65.24,1.77,1.77,0,0,0,.9-.16.49.49,0,0,0,.25-.44.72.72,0,0,0-.45-.65,6.63,6.63,0,0,0-1.16-.44c-.48-.14-1-.3-1.59-.49a8.82,8.82,0,0,1-2.06-1,3.31,3.31,0,0,1-1.19-1.26,3.75,3.75,0,0,1-.39-1.78,4.48,4.48,0,0,1,.75-2.65,4.8,4.8,0,0,1,2-1.62,6.5,6.5,0,0,1,2.64-.55,8.63,8.63,0,0,1,2,.25,14.18,14.18,0,0,1,1.84.62q.85.36,1.5.69Z" transform="translate(-3.81 -4.76)"/></g><g class="d"><path class="a" d="M164.22,31.88a15.29,15.29,0,0,1-11.16-4.78l.83-.79a14.28,14.28,0,0,0,20.43.25l.81.81A15.33,15.33,0,0,1,164.22,31.88Z" transform="translate(-3.81 -4.76)"/><polygon class="a" points="173.68 19.72 173.31 19.08 173.68 18.44 174.41 18.44 174.78 19.08 174.41 19.72 173.68 19.72"/></g><g class="e"><path class="a" d="M178.51,19.32a.82.82,0,1,1-.82-.82A.82.82,0,0,1,178.51,19.32Z" transform="translate(-3.81 -4.76)"/><path class="a" d="M183.18,24.05a.81.81,0,0,1-1.62,0,.81.81,0,1,1,1.62,0Z" transform="translate(-3.81 -4.76)"/><polygon class="a" points="178.09 15.37 177.62 14.56 178.09 13.75 179.03 13.75 179.5 14.56 179.03 15.37 178.09 15.37"/></g><g class="f"><path class="a" d="M183.2,14.8a1,1,0,1,1-1-1A1,1,0,0,1,183.2,14.8Z" transform="translate(-3.81 -4.76)"/><path class="a" d="M187.87,19.53a1,1,0,1,1-1-1A1,1,0,0,1,187.87,19.53Z" transform="translate(-3.81 -4.76)"/><polygon class="a" points="182.51 11.02 181.94 10.04 182.51 9.05 183.65 9.05 184.22 10.04 183.65 11.02 182.51 11.02"/></g><path class="a" d="M187.89,10.28a1.16,1.16,0,1,1-1.16-1.16A1.16,1.16,0,0,1,187.89,10.28Z" transform="translate(-3.81 -4.76)"/><circle class="a" cx="187.6" cy="10.25" r="1.16"/><polygon class="a" points="186.93 6.68 186.26 5.52 186.93 4.36 188.27 4.36 188.94 5.52 188.27 6.68 186.93 6.68"/></svg>